<svg xmlns="http://www.w3.org/2000/svg" viewBox="0 0 48 48" width="48" height="48">
  <!-- 手绘清理猫砂图标 - 簸箕 + 猫砂粒 -->
  <!-- 簸箕主体 -->
  <path d="M14 36 L10 18 C10 16, 12 14, 14 14 L30 14 C32 14, 34 16, 34 18 L30 36Z" fill="#B8E8F8" stroke="#2A2A2A" stroke-width="2" stroke-linecap="round" stroke-linejoin="round"/>
  <!-- 簸箕把手 -->
  <path d="M32 18 L38 12 C39 11, 40 11, 40 12 L42 14 C42 15, 41 16, 40 15 L34 20" fill="none" stroke="#2A2A2A" stroke-width="2" stroke-linecap="round" stroke-linejoin="round"/>
  <!-- 猫砂粒装饰 -->
  <circle cx="18" cy="24" r="2" fill="#8EBD3C" stroke="#2A2A2A" stroke-width="1" opacity="0.8"/>
  <circle cx="24" cy="28" r="1.5" fill="#38B8E8" stroke="#2A2A2A" stroke-width="0.8" opacity="0.7"/>
  <circle cx="22" cy="22" r="1.5" fill="#FFB8C6" stroke="#2A2A2A" stroke-width="0.8" opacity="0.7"/>
  <circle cx="27" cy="24" r="1.8" fill="#8EBD3C" stroke="#2A2A2A" stroke-width="0.8" opacity="0.6"/>
  <!-- 小星星装饰 -->
  <path d="M8 10 L9 8 L10 10 L9 12Z" fill="#38B8E8" stroke="none" opacity="0.6"/>
  <circle cx="40" cy="36" r="1" fill="#8EBD3C" opacity="0.5"/>
</svg>
