<svg xmlns="http://www.w3.org/2000/svg" viewBox="0 0 48 48" width="48" height="48">
  <!-- 手绘喂食图标 - 猫粮碗 + 鱼骨 -->
  <!-- 碗身 - 松散手绘弧线 -->
  <path d="M9 30 C8 25, 12 21, 24 20 C36 21, 40 25, 39 30 L37 36 C36 38, 30 40, 24 40 C18 40, 12 38, 11 36Z" fill="#B8E8F8" stroke="#2A2A2A" stroke-width="2" stroke-linecap="round" stroke-linejoin="round"/>
  <!-- 碗口高光弧线 -->
  <path d="M12 24 C17 22, 31 22, 36 24" fill="none" stroke="#2A2A2A" stroke-width="1.2" stroke-linecap="round" opacity="0.5"/>
  <!-- 鱼骨装饰（碗里） -->
  <path d="M17 26 L31 26" fill="none" stroke="#38B8E8" stroke-width="1.5" stroke-linecap="round"/>
  <path d="M20 26 L18 24 M20 26 L18 28" fill="none" stroke="#38B8E8" stroke-width="1.2" stroke-linecap="round"/>
  <path d="M24 26 L22 24 M24 26 L22 28" fill="none" stroke="#38B8E8" stroke-width="1.2" stroke-linecap="round"/>
  <path d="M28 26 L26 24 M28 26 L26 28" fill="none" stroke="#38B8E8" stroke-width="1.2" stroke-linecap="round"/>
  <!-- 香气曲线 -->
  <path d="M18 15 C18 13, 20 12, 20 14" fill="none" stroke="#2A2A2A" stroke-width="1.2" stroke-linecap="round" opacity="0.5"/>
  <path d="M23 13 C23 11, 25 10, 25 12" fill="none" stroke="#2A2A2A" stroke-width="1.2" stroke-linecap="round" opacity="0.5"/>
  <path d="M28 15 C28 13, 30 12, 30 14" fill="none" stroke="#2A2A2A" stroke-width="1.2" stroke-linecap="round" opacity="0.4"/>
  <!-- 小星星 -->
  <path d="M38 12 L39 10 L40 12 L39 14Z" fill="#8EBD3C" stroke="none" opacity="0.7"/>
</svg>
