<svg xmlns="http://www.w3.org/2000/svg" viewBox="0 0 48 48" width="48" height="48">
  <!-- 手绘驱虫图标 - 药丸胶囊 -->
  <!-- 胶囊主体 -->
  <path d="M14 34 L30 18 C34 14, 40 14, 40 20 C40 26, 36 28, 34 30 L18 46 C14 50, 8 48, 8 42 C8 38, 10 36, 14 34Z" fill="none" stroke="#2A2A2A" stroke-width="2" stroke-linecap="round" stroke-linejoin="round"/>
  <!-- 上半部填色 -->
  <path d="M30 18 C34 14, 40 14, 40 20 C40 26, 36 28, 34 30 L22 22Z" fill="#FFB8C6" stroke="none" opacity="0.85"/>
  <!-- 下半部填色 -->
  <path d="M14 34 L22 22 L18 46 C14 50, 8 48, 8 42 C8 38, 10 36, 14 34Z" fill="#B8E8F8" stroke="none" opacity="0.85"/>
  <!-- 分隔线 -->
  <path d="M18 30 L30 22" fill="none" stroke="#2A2A2A" stroke-width="1.5" stroke-linecap="round" opacity="0.6"/>
  <!-- 小虫子被打叉 -->
  <path d="M34 36 L38 40 M38 36 L34 40" fill="none" stroke="#8EBD3C" stroke-width="2" stroke-linecap="round"/>
  <!-- 装饰 -->
  <path d="M10 10 L11 8 L12 10 L11 12Z" fill="#38B8E8" stroke="none" opacity="0.6"/>
  <circle cx="42" cy="8" r="1.2" fill="#8EBD3C" opacity="0.5"/>
</svg>
