<svg xmlns="http://www.w3.org/2000/svg" viewBox="0 0 48 48" width="48" height="48">
  <!-- 手绘爱心领养图标 - 爱心里的猫脸 -->
  <!-- 爱心轮廓 - 手绘松散线条 -->
  <path d="M24 40 C24 40, 10 30, 10 21 C10 15, 14 12, 18 12 C20.5 12, 22.5 13.5, 24 16 C25.5 13.5, 27.5 12, 30 12 C34 12, 38 15, 38 21 C38 30, 24 40, 24 40Z" fill="#FFB8C6" stroke="#2A2A2A" stroke-width="2" stroke-linecap="round" stroke-linejoin="round" opacity="0.9"/>
  <!-- 猫耳朵（爱心内） -->
  <path d="M19 22 L17 17 L22 20" fill="none" stroke="#2A2A2A" stroke-width="1.5" stroke-linecap="round" stroke-linejoin="round"/>
  <path d="M29 22 L31 17 L26 20" fill="none" stroke="#2A2A2A" stroke-width="1.5" stroke-linecap="round" stroke-linejoin="round"/>
  <!-- 猫眯眯眼 -->
  <path d="M19 25 C20 23.5, 22 23.5, 23 25" fill="none" stroke="#2A2A2A" stroke-width="1.3" stroke-linecap="round"/>
  <path d="M25 25 C26 23.5, 28 23.5, 29 25" fill="none" stroke="#2A2A2A" stroke-width="1.3" stroke-linecap="round"/>
  <!-- 猫鼻子 -->
  <path d="M23 28 L24 27 L25 28" fill="none" stroke="#2A2A2A" stroke-width="1.2" stroke-linecap="round"/>
  <!-- 小胡须 -->
  <path d="M16 27 L20 26" fill="none" stroke="#2A2A2A" stroke-width="1" stroke-linecap="round" opacity="0.6"/>
  <path d="M28 26 L32 27" fill="none" stroke="#2A2A2A" stroke-width="1" stroke-linecap="round" opacity="0.6"/>
  <!-- 装饰小星星 -->
  <path d="M8 14 L9 12 L10 14 L9 16Z" fill="#38B8E8" stroke="none" opacity="0.6"/>
  <path d="M38 10 L39 8 L40 10 L39 12Z" fill="#8EBD3C" stroke="none" opacity="0.6"/>
</svg>
