<svg xmlns="http://www.w3.org/2000/svg" viewBox="0 0 48 48" width="48" height="48">
  <!-- 手绘附近服务图标 - 简笔小房子+十字 -->
  <!-- 房子主体 -->
  <path d="M12 26 L12 38 L36 38 L36 26" fill="#B8E8F8" stroke="#2A2A2A" stroke-width="2" stroke-linecap="round" stroke-linejoin="round"/>
  <!-- 屋顶 - 手绘三角 -->
  <path d="M9 27 L24 14 L39 27" fill="none" stroke="#2A2A2A" stroke-width="2.2" stroke-linecap="round" stroke-linejoin="round"/>
  <!-- 十字标志（医疗） -->
  <path d="M24 24 L24 34" fill="none" stroke="#38B8E8" stroke-width="2.5" stroke-linecap="round"/>
  <path d="M19 29 L29 29" fill="none" stroke="#38B8E8" stroke-width="2.5" stroke-linecap="round"/>
  <!-- 门 -->
  <path d="M20 38 L20 34 C20 33, 21 32, 22 32 L26 32 C27 32, 28 33, 28 34 L28 38" fill="none" stroke="#2A2A2A" stroke-width="1.5" stroke-linecap="round" opacity="0.5"/>
  <!-- 装饰 -->
  <path d="M38 12 L39 10 L40 12 L39 14Z" fill="#8EBD3C" stroke="none" opacity="0.6"/>
  <circle cx="10" cy="16" r="1.2" fill="#FFB8C6" opacity="0.6"/>
  <!-- 小猫爪印 -->
  <circle cx="40" cy="34" r="2" fill="none" stroke="#2A2A2A" stroke-width="1" opacity="0.4"/>
  <circle cx="38" cy="31" r="1" fill="none" stroke="#2A2A2A" stroke-width="0.8" opacity="0.3"/>
  <circle cx="41" cy="31" r="1" fill="none" stroke="#2A2A2A" stroke-width="0.8" opacity="0.3"/>
</svg>
