<svg xmlns="http://www.w3.org/2000/svg" viewBox="0 0 48 48" width="48" height="48">
  <!-- 手绘剪指甲图标 - 剪刀 -->
  <!-- 剪刀上半部分 -->
  <path d="M12 14 C10 12, 10 8, 14 8 C18 8, 18 12, 16 14 L26 24" fill="none" stroke="#2A2A2A" stroke-width="2" stroke-linecap="round" stroke-linejoin="round"/>
  <!-- 剪刀下半部分 -->
  <path d="M12 34 C10 36, 10 40, 14 40 C18 40, 18 36, 16 34 L26 24" fill="none" stroke="#2A2A2A" stroke-width="2" stroke-linecap="round" stroke-linejoin="round"/>
  <!-- 剪刀刃 -->
  <path d="M26 24 L40 24" fill="none" stroke="#2A2A2A" stroke-width="2.5" stroke-linecap="round"/>
  <path d="M16 14 L28 22" fill="none" stroke="#2A2A2A" stroke-width="2" stroke-linecap="round"/>
  <path d="M16 34 L28 26" fill="none" stroke="#2A2A2A" stroke-width="2" stroke-linecap="round"/>
  <!-- 手柄环内填充 -->
  <circle cx="13" cy="11" r="3.5" fill="#B8E8F8" stroke="none" opacity="0.6"/>
  <circle cx="13" cy="37" r="3.5" fill="#B8E8F8" stroke="none" opacity="0.6"/>
  <!-- 装饰 -->
  <path d="M36 14 L37 12 L38 14 L37 16Z" fill="#8EBD3C" stroke="none" opacity="0.7"/>
  <circle cx="38" cy="36" r="1.2" fill="#FFB8C6" opacity="0.5"/>
  <circle cx="6" cy="24" r="1" fill="#38B8E8" opacity="0.4"/>
</svg>
