<svg xmlns="http://www.w3.org/2000/svg" viewBox="0 0 48 48" width="48" height="48">
  <!-- 手绘养护图标 - 爱心 + 猫爪 -->
  <!-- 爱心主体 - 手绘松散线条 -->
  <path d="M24 38 C24 38, 11 29, 11 21 C11 16, 14 13, 18 13 C20 13, 22 14, 24 17 C26 14, 28 13, 30 13 C34 13, 37 16, 37 21 C37 29, 24 38, 24 38Z" fill="#FFB8C6" stroke="#2A2A2A" stroke-width="2" stroke-linecap="round" stroke-linejoin="round" opacity="0.85"/>
  <!-- 猫爪印（爱心上方） -->
  <path d="M22 24 C21 22, 23 20, 25 21 C27 22, 27 24, 25 25 C23 26, 22 25, 22 24Z" fill="none" stroke="#2A2A2A" stroke-width="1.3" stroke-linecap="round" opacity="0.7"/>
  <circle cx="20" cy="21" r="1.5" fill="none" stroke="#2A2A2A" stroke-width="1.2" opacity="0.6"/>
  <circle cx="23" cy="19" r="1.5" fill="none" stroke="#2A2A2A" stroke-width="1.2" opacity="0.6"/>
  <circle cx="27" cy="19" r="1.5" fill="none" stroke="#2A2A2A" stroke-width="1.2" opacity="0.6"/>
  <circle cx="29" cy="21.5" r="1.5" fill="none" stroke="#2A2A2A" stroke-width="1.2" opacity="0.6"/>
  <!-- 闪光星星 -->
  <path d="M14 10 L15 8 L16 10 L15 12Z" fill="#8EBD3C" stroke="none" opacity="0.7"/>
  <path d="M34 10 L35 8 L36 10 L35 12Z" fill="#38B8E8" stroke="none" opacity="0.6"/>
  <!-- 小圆点装饰 -->
  <circle cx="8" cy="24" r="1" fill="#38B8E8" opacity="0.4"/>
  <circle cx="40" cy="28" r="1.2" fill="#8EBD3C" opacity="0.4"/>
</svg>
