<svg xmlns="http://www.w3.org/2000/svg" viewBox="0 0 81 81" width="81" height="81">
  <!-- 手绘星球 - 选中态(天蓝) -->
  <!-- 星球主体 - 不规则圆，天蓝填充 -->
  <path d="M40 22 C52 21, 62 30, 61 42 C60 54, 50 62, 39 61 C28 60, 19 51, 20 40 C21 29, 30 23, 40 22Z" fill="#B8E8F8" stroke="#38B8E8" stroke-width="2.5" stroke-linecap="round" stroke-linejoin="round"/>
  <!-- 星球环 - 松散椭圆 -->
  <path d="M14 44 C18 38, 30 36, 42 37 C54 38, 66 42, 67 47 C68 52, 56 54, 44 53 C32 52, 18 48, 14 44Z" fill="none" stroke="#38B8E8" stroke-width="2" stroke-linecap="round"/>
  <!-- 小星星装饰 -->
  <path d="M22 18 L23.5 15 L25 18 L23.5 21Z" fill="#8EBD3C" stroke="#8EBD3C" stroke-width="1" stroke-linecap="round" stroke-linejoin="round"/>
  <path d="M60 20 L61 18 L62 20 L61 22Z" fill="#38B8E8" stroke="#38B8E8" stroke-width="1" stroke-linecap="round" opacity="0.7"/>
  <!-- 星球表面纹理 -->
  <path d="M32 35 C36 33, 42 34, 45 36" fill="none" stroke="#38B8E8" stroke-width="1.2" stroke-linecap="round" opacity="0.6"/>
  <path d="M35 47 C40 49, 48 48, 50 46" fill="none" stroke="#38B8E8" stroke-width="1.2" stroke-linecap="round" opacity="0.5"/>
</svg>
