<svg xmlns="http://www.w3.org/2000/svg" viewBox="0 0 81 81" width="81" height="81">
  <!-- 手绘猫爪印 - 普通态(灰色) -->
  <!-- 大肉垫 - 不规则手绘 -->
  <path d="M33 48 C30 44, 32 38, 40 37 C48 38, 51 44, 48 48 C46 52, 35 52, 33 48Z" fill="none" stroke="#9A9A9A" stroke-width="2.2" stroke-linecap="round" stroke-linejoin="round"/>
  <!-- 四个小肉垫 - 松散圆圈 -->
  <path d="M26 37 C25 34, 27 31, 30 32 C33 33, 33 36, 31 38 C29 39, 27 39, 26 37Z" fill="none" stroke="#9A9A9A" stroke-width="2" stroke-linecap="round"/>
  <path d="M34 30 C33 27, 35 24, 38 25 C41 26, 41 29, 39 31 C37 32, 35 32, 34 30Z" fill="none" stroke="#9A9A9A" stroke-width="2" stroke-linecap="round"/>
  <path d="M43 30 C42 27, 44 24, 47 25 C50 26, 50 29, 48 31 C46 32, 44 32, 43 30Z" fill="none" stroke="#9A9A9A" stroke-width="2" stroke-linecap="round"/>
  <path d="M51 37 C50 34, 52 31, 55 32 C58 33, 58 36, 56 38 C54 39, 52 39, 51 37Z" fill="none" stroke="#9A9A9A" stroke-width="2" stroke-linecap="round"/>
  <!-- 小装饰点 -->
  <circle cx="40" cy="58" r="1.2" fill="#9A9A9A" opacity="0.4"/>
  <circle cx="20" cy="26" r="1" fill="#9A9A9A" opacity="0.3"/>
</svg>
